<?xml version="1.0" encoding="iso-8859-1"?>
<!-- Generator: Adobe Illustrator 19.0.0, SVG Export Plug-In . SVG Version: 6.00 Build 0)  -->
<svg version="1.1" id="Layer_1" xmlns="http://www.w3.org/2000/svg" xmlns:xlink="http://www.w3.org/1999/xlink" x="0px" y="0px"
	 viewBox="0 0 510.293 510.293" style="enable-background:new 0 0 510.293 510.293;" xml:space="preserve">
<g transform="translate(1 1)">
	<g>
		<g>
			<path d="M136.387,149.187c2.56,0,4.267-0.853,5.973-2.56c3.413-3.413,3.413-8.533,0-11.947c-33.28-33.28-33.28-87.893,0-121.173
				c3.413-3.413,3.413-8.533,0-11.947s-8.533-3.413-11.947,0c-40.107,40.107-40.107,104.96,0,145.067
				C132.12,148.333,133.827,149.187,136.387,149.187z"/>
			<path d="M365.933,134.68c-3.413,3.413-3.413,8.533,0,11.947c1.707,1.707,3.413,2.56,5.973,2.56c1.707,0,4.267-0.853,5.973-1.707
				c40.107-40.107,40.107-104.96,0-145.067c-3.413-3.413-8.533-3.413-11.947,0c-3.413,3.413-3.413,8.533,0,11.947
				C399.213,47.64,399.213,101.4,365.933,134.68z"/>
			<path d="M163.693,121.88c1.707,1.707,3.413,2.56,5.973,2.56c1.707,0,4.267,0,5.973-2.56c3.413-3.413,3.413-8.533,0-11.947
				c-19.627-20.48-19.627-52.907,0-72.533c3.413-3.413,3.413-8.533,0-11.947s-8.533-3.413-11.947,0
				C137.24,51.907,137.24,95.427,163.693,121.88z"/>
			<path d="M333.507,122.733c1.707,1.707,3.413,2.56,5.973,2.56c1.707,0,4.267-0.853,5.973-2.56
				c26.453-26.453,26.453-69.973,0-96.427c-3.413-3.413-8.533-3.413-11.947,0c-3.413,3.413-3.413,8.533,0,11.947
				c19.627,20.48,19.627,52.907,0,72.533C330.093,114.2,330.093,119.32,333.507,122.733z"/>
			<path d="M194.413,304.493H313.88c2.56,0,5.12-1.707,6.827-3.413c1.707-2.56,1.707-5.12,0.853-7.68l-17.92-51.2
				c-0.853-3.413-4.267-5.973-7.68-5.973h-83.627c-3.413,0-6.827,2.56-7.68,5.973l-17.92,51.2c-0.853,2.56-0.853,5.12,0.853,7.68
				C189.293,302.787,191.853,304.493,194.413,304.493z M218.307,253.293h71.68l11.947,34.133H206.36L218.307,253.293z"/>
			<path d="M333.507,327.533c-0.853-3.413-4.267-5.973-7.68-5.973h-143.36c-3.413,0-6.827,2.56-7.68,5.973l-17.92,51.2
				c-0.853,2.56-0.853,5.12,0.853,7.68c1.707,1.707,4.267,3.413,6.827,3.413h179.2c2.56,0,5.12-1.707,6.827-3.413
				c1.707-2.56,1.707-5.12,0.853-7.68L333.507,327.533z M176.493,372.76l11.947-34.133h131.413L331.8,372.76H176.493z"/>
			<path d="M245.613,99.693c0,5.12,3.413,8.533,8.533,8.533c18.773,0,34.133-15.36,34.133-34.133c0-5.12-3.413-8.533-8.533-8.533
				c-5.12,0-8.533,3.413-8.533,8.533c0,9.387-7.68,17.067-17.067,17.067C249.027,91.16,245.613,94.573,245.613,99.693z"/>
			<path d="M228.547,82.627c5.12,0,8.533-3.413,8.533-8.533c0-9.387,7.68-17.067,17.067-17.067c5.12,0,8.533-3.413,8.533-8.533
				s-3.413-8.533-8.533-8.533c-18.773,0-34.133,15.36-34.133,34.133C220.013,79.213,223.427,82.627,228.547,82.627z"/>
			<path d="M441.88,458.093h-18.361L302.656,121.996c12.196-12.348,19.757-29.283,19.757-47.903
				c0-37.547-30.72-68.267-68.267-68.267s-68.267,30.72-68.267,68.267c0,19.251,8.089,36.694,21.021,49.136L86.481,458.093H66.413
				c-5.12,0-8.533,3.413-8.533,8.533v34.133c0,5.12,3.413,8.533,8.533,8.533h93.867c5.12,0,8.533-3.413,8.533-8.533v-34.133
				c0-5.12-3.413-8.533-8.533-8.533h-13.943l12.236-34.133H349.72l12.236,34.133h-13.943c-5.12,0-8.533,3.413-8.533,8.533v34.133
				c0,5.12,3.413,8.533,8.533,8.533h93.867c5.12,0,8.533-3.413,8.533-8.533v-34.133C450.413,461.507,447,458.093,441.88,458.093z
				 M272.067,202.093h-35.84l17.92-51.2L272.067,202.093z M202.947,74.093c0-28.16,23.04-51.2,51.2-51.2s51.2,23.04,51.2,51.2
				c0,28.16-23.04,51.2-51.2,51.2c-9.378,0-18.18-2.566-25.76-7.015c-2.011-1.235-3.955-2.592-5.813-4.079
				c-0.221-0.147-0.442-0.279-0.662-0.413C210.36,104.379,202.947,90.062,202.947,74.093z M151.747,492.227h-76.8V475.16h17.067
				h42.667h17.067V492.227z M363.373,412.867c-0.853-3.413-4.267-5.973-7.68-5.973H152.6c-3.413,0-6.827,2.56-7.68,5.973
				l-16.213,45.227H103.96l116.713-324.582c5.837,3.311,12.198,5.786,18.926,7.262L216.6,208.067
				c-0.853,2.56-0.853,5.973,0.853,7.68c1.707,1.707,4.267,3.413,6.827,3.413h59.733c2.56,0,5.973,0,7.68-2.56
				c1.707-2.56,1.707-5.12,0.853-7.68l-23.893-67.413c5.973-1.707,12.8-4.267,18.773-7.68l116.907,324.267h-24.747L363.373,412.867z
				 M433.347,492.227h-76.8V475.16h17.067h42.667h17.067V492.227z"/>
		</g>
	</g>
</g>
<g>
</g>
<g>
</g>
<g>
</g>
<g>
</g>
<g>
</g>
<g>
</g>
<g>
</g>
<g>
</g>
<g>
</g>
<g>
</g>
<g>
</g>
<g>
</g>
<g>
</g>
<g>
</g>
<g>
</g>
</svg>
