<?xml version="1.0" encoding="iso-8859-1"?>
<!-- Generator: Adobe Illustrator 19.0.0, SVG Export Plug-In . SVG Version: 6.00 Build 0)  -->
<svg version="1.1" id="Capa_1" xmlns="http://www.w3.org/2000/svg" xmlns:xlink="http://www.w3.org/1999/xlink" x="0px" y="0px"
	 viewBox="0 0 511.877 511.877" style="enable-background:new 0 0 511.877 511.877;" xml:space="preserve">
<g>
	<g>
		<g>
			<path d="M456.655,53.664C421.177,19.052,373.511-0.222,323.947,0.002c-4.713,0-8.533,3.82-8.533,8.533s3.82,8.533,8.533,8.533
				c45.11-0.215,88.496,17.318,120.792,48.812c31.928,30.784,49.952,73.236,49.925,117.588c-0.001,2.263,0.898,4.434,2.499,6.035
				c1.6,1.6,3.771,2.499,6.035,2.499c2.263,0.001,4.434-0.898,6.035-2.499c1.6-1.6,2.499-3.771,2.499-6.035
				C511.773,134.514,491.889,87.651,456.655,53.664z"/>
			<path d="M323.947,36.331c-4.713,0-8.533,3.821-8.533,8.533s3.82,8.533,8.533,8.533c34.498-0.002,67.584,13.701,91.978,38.094
				c24.394,24.393,38.098,57.479,38.097,91.977c-0.001,2.263,0.898,4.434,2.499,6.035c1.6,1.6,3.771,2.499,6.035,2.499
				c2.263,0.001,4.434-0.898,6.035-2.499c1.6-1.6,2.499-3.771,2.499-6.035c0-39.024-15.503-76.449-43.097-104.043
				C400.396,51.832,362.971,36.33,323.947,36.331z"/>
			<path d="M323.947,87.531c25.445-0.002,49.849,10.104,67.842,28.096s28.101,42.396,28.099,67.841c0,4.713,3.82,8.533,8.533,8.533
				s8.533-3.82,8.533-8.533c0-29.971-11.906-58.715-33.099-79.908c-21.193-21.193-49.938-33.098-79.909-33.096
				c-4.713,0-8.533,3.82-8.533,8.533S319.234,87.531,323.947,87.531z"/>
			<path d="M323.947,121.664c16.392-0.001,32.113,6.51,43.705,18.101s18.104,27.311,18.104,43.704c0,4.713,3.82,8.533,8.533,8.533
				s8.533-3.82,8.533-8.533c-0.003-43.56-35.315-78.871-78.875-78.871c-4.713,0-8.533,3.82-8.533,8.533
				S319.234,121.664,323.947,121.664z"/>
			<path d="M371.199,179.376c-2.653-20.068-18.443-35.858-38.51-38.511s-39.419,8.49-47.196,27.178
				C206.113,97.623,110.572,48.068,73.213,85.41c-97.471,97.609-97.415,255.735,0.125,353.275s255.666,97.596,353.275,0.125
				c37.344-37.34-12.195-132.864-82.594-212.239C362.708,218.794,373.852,199.443,371.199,179.376z M307.147,165.744
				c10.952-10.45,28.182-10.45,39.133,0c5.191,5.188,8.108,12.227,8.108,19.567s-2.917,14.378-8.108,19.567
				c-10.952,10.45-28.182,10.45-39.133,0C296.363,194.061,296.363,176.559,307.147,165.744z M301.703,222.388
				c5.226,3.517,11.145,5.874,17.358,6.912l23.306,192.364c-39.369-16.805-89.294-50.449-140.011-99.929L301.703,222.388z
				 M289.657,210.3l-99.367,99.367c-49.478-50.719-83.127-100.647-99.933-140.016L282.73,192.96
				C283.784,199.166,286.145,205.076,289.657,210.3z M85.28,97.477c21.464-21.483,95.029,2.343,180.847,76.281L83.496,151.63
				C75.366,126.196,75.82,106.936,85.28,97.477z M85.28,426.744L85.28,426.744c-80.653-80.655-91-207.865-24.442-300.494
				c3.761,53.599,57.256,135.574,123.308,201.627c66.116,66.116,148.121,119.55,201.715,123.223
				C293.192,517.578,166.037,507.274,85.28,426.744z M414.547,426.744L414.547,426.744c-9.465,9.453-28.722,9.907-54.15,1.782
				l-22.128-182.638C412.198,331.702,436.034,405.257,414.547,426.744z"/>
		</g>
	</g>
</g>
<g>
</g>
<g>
</g>
<g>
</g>
<g>
</g>
<g>
</g>
<g>
</g>
<g>
</g>
<g>
</g>
<g>
</g>
<g>
</g>
<g>
</g>
<g>
</g>
<g>
</g>
<g>
</g>
<g>
</g>
</svg>
